# xmcd CD database file
#
# Track frame offsets:
#	182
#	8640
#	18312
#	28002
#	38520
#	48705
#	58722
#	71275
#	86020
#	99245
#	113902
#	130787
#	140917
#	151375
#	161555
#	171967
#	181642
#	192750
#	201985
#	212190
#	224460
#	234287
#
# Disc length: 3250 seconds
#
# Revision: 1
# Processed by: cddbd v1.5.1PL0 Copyright (c) Steve Scherf et al.
# Submitted via: CDex 1.51
#
DISCID=2c0cb016
DTITLE=Roy Orbison - Legends
DYEAR=1994
DGENRE=Oldies
TTITLE0=Big hearted me
TTITLE1=Blue blue day
TTITLE2=What about me
TTITLE3=Lonesome number one
TTITLE4=A legend in my time
TTITLE5=I'm hurting
TTITLE6=Too soon to know
TTITLE7=Such a stranger
TTITLE8=Southern man
TTITLE9=Old love song
TTITLE10=Born to love me
TTITLE11=The same street
TTITLE12=Chicken  hearted
TTITLE13=Devil doll
TTITLE14=Domino
TTITLE15=Go go go
TTITLE16=I never knew
TTITLE17=It's too late
TTITLE18=Ooby dooby
TTITLE19=Trying to get to you
TTITLE20=You're gonna cry
TTITLE21=You're my baby
EXTD=YEAR: 1994
EXTT0=
EXTT1=
EXTT2=
EXTT3=
EXTT4=
EXTT5=
EXTT6=
EXTT7=
EXTT8=
EXTT9=
EXTT10=
EXTT11=
EXTT12=
EXTT13=
EXTT14=
EXTT15=
EXTT16=
EXTT17=
EXTT18=
EXTT19=
EXTT20=
EXTT21=
PLAYORDER=
